<svg id="SvgjsSvg1001" width="288" height="288" xmlns="http://www.w3.org/2000/svg" version="1.1" xmlns:xlink="http://www.w3.org/1999/xlink" xmlns:svgjs="http://svgjs.com/svgjs"><defs id="SvgjsDefs1002"></defs><g id="SvgjsG1008"><svg xmlns="http://www.w3.org/2000/svg" enable-background="new 0 0 24 24" viewBox="0 0 24 24" width="288" height="288"><path d="M21,14c-0.6,0-1,0.4-1,1v4c0,0.6-0.4,1-1,1H5c-0.6,0-1-0.4-1-1v-4c0-0.6-0.4-1-1-1s-1,0.4-1,1v4c0,1.7,1.3,3,3,3h14	c1.7,0,3-1.3,3-3v-4C22,14.4,21.6,14,21,14z M11.3,15.7c0.4,0.4,1,0.4,1.4,0c0,0,0,0,0,0l4-4c0.4-0.4,0.4-1,0-1.4l0,0
	c-0.4-0.4-1-0.4-1.4,0c0,0,0,0,0,0L13,12.6V3c0-0.6-0.4-1-1-1s-1,0.4-1,1v9.6l-2.3-2.3c-0.4-0.4-1-0.4-1.4,0c-0.4,0.4-0.4,1,0,1.4
	L11.3,15.7z" fill="#ffffff" class="svgShape color000000-0 selectable"></path></svg></g></svg>