<svg id="SvgjsSvg1020" width="288" height="288" xmlns="http://www.w3.org/2000/svg" version="1.1" xmlns:xlink="http://www.w3.org/1999/xlink" xmlns:svgjs="http://svgjs.com/svgjs"><defs id="SvgjsDefs1021"></defs><g id="SvgjsG1022"><svg xmlns="http://www.w3.org/2000/svg" enable-background="new 0 0 32 32" viewBox="0 0 32 32" width="288" height="288"><path d="M19.75,17.364l-3.463-2.447c-0.856-0.605-1.967-0.682-2.897-0.2c-0.931,0.482-1.509,1.433-1.509,2.481v4.894
		c0,1.048,0.578,1.999,1.509,2.481c0.407,0.21,0.848,0.314,1.286,0.314c0.566,0,1.129-0.173,1.611-0.514l3.463-2.447
		c0.74-0.522,1.181-1.375,1.181-2.281C20.932,18.74,20.49,17.887,19.75,17.364z M18.711,20.458l-3.463,2.447
		c-0.308,0.218-0.695,0.245-1.03,0.071c-0.336-0.174-0.537-0.504-0.537-0.883v-4.894c0-0.378,0.201-0.708,0.537-0.882
		c0.147-0.076,0.304-0.114,0.459-0.114c0.2,0,0.397,0.063,0.571,0.185l3.463,2.447c0.267,0.189,0.42,0.485,0.42,0.812
		S18.978,20.269,18.711,20.458z" fill="#ffffff" class="svgShape color000000-0 selectable"></path><path d="M23.81,1.1H8.19C4.281,1.1,1.1,4.281,1.1,8.19v15.62c0,3.909,3.181,7.09,7.09,7.09h15.62c3.909,0,7.09-3.181,7.09-7.09
		V8.19C30.9,4.281,27.719,1.1,23.81,1.1z M29.1,8.19v0.202h-5.85c0.795-1.469,2.161-3.882,2.785-4.984
		C27.84,4.251,29.1,6.071,29.1,8.19z M24.231,2.942c-1.802,3.185-2.635,4.695-3.012,5.449H16.25c0.7-1.297,1.907-3.45,3.071-5.492
		h4.489C23.954,2.9,24.09,2.931,24.231,2.942z M17.25,2.9c-1.811,3.185-2.643,4.716-3.025,5.492H9.25
		c0.7-1.297,1.907-3.45,3.071-5.492H17.25z M8.19,2.9h2.06C8.439,6.085,7.607,7.616,7.225,8.392H2.9V8.19
		C2.9,5.273,5.273,2.9,8.19,2.9z M23.81,29.1H8.19c-2.917,0-5.29-2.373-5.29-5.29V10.191h26.2V23.81
		C29.1,26.727,26.727,29.1,23.81,29.1z" fill="#ffffff" class="svgShape color000000-1 selectable"></path></svg></g></svg>