<svg id="SvgjsSvg1026" width="288" height="288" xmlns="http://www.w3.org/2000/svg" version="1.1" xmlns:xlink="http://www.w3.org/1999/xlink" xmlns:svgjs="http://svgjs.com/svgjs"><defs id="SvgjsDefs1027"></defs><g id="SvgjsG1028"><svg xmlns="http://www.w3.org/2000/svg" enable-background="new 0 0 20 20" viewBox="0 0 20 20" width="288" height="288"><path fill="#ffffff" d="M2.67,19.75h14.66c1.33,0,2.42-1.09,2.42-2.42V2.67c0-1.34-1.09-2.42-2.42-2.42H2.67
		c-1.33,0-2.42,1.09-2.42,2.42v14.66C0.25,18.66,1.34,19.75,2.67,19.75z M17.33,18.25H2.67c-0.51,0-0.92-0.41-0.92-0.92v-2.16
		l4.15-4.15l4.88,4.88c0.15,0.15,0.34,0.22,0.53,0.22s0.38-0.07,0.53-0.22l3.32-3.32l3.09,3.09v1.67
		C18.25,17.84,17.84,18.25,17.33,18.25z M2.67,1.75h14.66c0.51,0,0.92,0.41,0.92,0.92v10.87l-2.56-2.56c-0.29-0.29-0.77-0.29-1.06,0
		l-3.32,3.32L6.43,9.42c-0.29-0.29-0.77-0.29-1.06,0l-3.62,3.62V2.67C1.75,2.16,2.16,1.75,2.67,1.75z" class="svgShape color2d4356-0 selectable"></path><path fill="#ffffff" d="M11.3,9.05c1.43,0,2.6-1.17,2.6-2.6c0-1.44-1.17-2.6-2.6-2.6c-1.44,0-2.6,1.17-2.6,2.6
		C8.69,7.88,9.86,9.05,11.3,9.05z M11.3,5.34c0.61,0,1.1,0.49,1.1,1.1c0,0.61-0.49,1.1-1.1,1.1s-1.1-0.49-1.1-1.1
		C10.19,5.84,10.69,5.34,11.3,5.34z" class="svgShape color2d4356-1 selectable"></path></svg></g></svg>